<?xml version="1.0" encoding="UTF-8" standalone="no"?>
<!-- Created with Inkscape (http://www.inkscape.org/) -->

<svg
   id="svg5"
   version="1.1"
   viewBox="0 0 153.09329 305.19537"
   height="305.19537"
   width="153.09329"
   xml:space="preserve"
   xmlns:xlink="http://www.w3.org/1999/xlink"
   xmlns="http://www.w3.org/2000/svg"
   xmlns:svg="http://www.w3.org/2000/svg"><defs
     id="defs2" /><g
     id="layer3"
     transform="translate(-6157.235,-1277.6825)"><use
       xlink:href="#g92"
       id="use131"
       transform="translate(3484.2929,1414.0375)" /><g
       id="g92"
       transform="translate(-87.681241,815.40054)"><g
         id="g91"
         transform="matrix(0.77025635,0,0,1,488.74209,26)"
         style="display:none;fill:#000000;stroke-width:1.13942"><g
           id="g3"
           transform="matrix(1.2982691,0,0,1,-595.57067,-3.375)"
           style="fill:#000000;stroke-width:1.13942"><path
             style="font-variation-settings:normal;display:inline;vector-effect:none;fill:#000000;fill-opacity:1;stroke:#000000;stroke-width:0.826961;stroke-linecap:round;stroke-linejoin:miter;stroke-miterlimit:4;stroke-dasharray:none;stroke-dashoffset:0;stroke-opacity:1;-inkscape-stroke:none;paint-order:stroke fill markers"
             id="path1"
             width="1.557331"
             height="14.803677"
             x="-2803.9414"
             y="-943.93329"
             d="m -2803.9414,-943.93329 h 1.5573 v 14.80368 h -1.5573 z m -66.4566,0 h -1.5574 v 14.80368 h 1.5574 z"
             transform="scale(-1,1)" /><path
             style="font-variation-settings:normal;display:inline;vector-effect:none;fill:#000000;fill-opacity:1;stroke:#000000;stroke-width:0.826958;stroke-linecap:round;stroke-linejoin:miter;stroke-miterlimit:4;stroke-dasharray:none;stroke-dashoffset:0;stroke-opacity:1;-inkscape-stroke:none;paint-order:stroke fill markers"
             id="path2"
             width="10.807331"
             height="9.6786766"
             x="-2808.5664"
             y="-943.68329"
             d="m -2808.5664,-943.68329 h 10.8073 v 9.67868 h -10.8073 z m -57.2066,0 h -10.8074 v 9.67868 h 10.8074 z"
             transform="scale(-1,1)" /></g><g
           id="g11"
           style="display:inline;fill:#000000;stroke-width:1.13942"><path
             style="font-variation-settings:normal;opacity:1;vector-effect:none;fill:#000000;fill-opacity:1;stroke:#000000;stroke-width:1.13942;stroke-linecap:round;stroke-linejoin:miter;stroke-miterlimit:4;stroke-dasharray:none;stroke-dashoffset:0;stroke-opacity:1;-inkscape-stroke:none;paint-order:stroke fill markers;stop-color:#000000;stop-opacity:1"
             d="m 3087.8391,-1236.6921 h -45.173 l -46.4855,3.375 -7.1229,85.8171 -0.01,119.7538 5.106,84.78837 93.6854,0.33423 93.6854,-0.33423 5.106,-84.78837 -0.01,-119.7538 -7.1229,-85.8171 -46.4855,-3.375 z"
             id="path4" /><path
             style="font-variation-settings:normal;opacity:1;vector-effect:none;fill:#000000;fill-opacity:1;stroke:#000000;stroke-width:1.13942;stroke-linecap:round;stroke-linejoin:miter;stroke-miterlimit:4;stroke-dasharray:none;stroke-dashoffset:0;stroke-opacity:1;-inkscape-stroke:none;paint-order:stroke fill markers;stop-color:#000000;stop-opacity:1"
             d="m 3087.8398,-1236.7168 -44.7871,0.1895 v 78.5781 l 44.7871,0.3496 44.7852,-0.3496 v -78.5781 z"
             id="path7" /><path
             style="font-variation-settings:normal;opacity:1;vector-effect:none;fill:#000000;fill-opacity:1;stroke:#000000;stroke-width:1.13942;stroke-linecap:round;stroke-linejoin:miter;stroke-miterlimit:4;stroke-dasharray:none;stroke-dashoffset:0;stroke-opacity:1;-inkscape-stroke:none;paint-order:stroke fill markers;stop-color:#000000;stop-opacity:1"
             d="m 3042.3169,-1147.2671 0.5497,-10.6795 44.9725,-0.1765 44.9725,0.1765 0.5497,10.6795"
             id="path8" /><path
             style="font-variation-settings:normal;opacity:1;vector-effect:none;fill:#000000;fill-opacity:1;stroke:#000000;stroke-width:1.13942;stroke-linecap:round;stroke-linejoin:miter;stroke-miterlimit:4;stroke-dasharray:none;stroke-dashoffset:0;stroke-opacity:1;-inkscape-stroke:none;paint-order:stroke fill markers;stop-color:#000000;stop-opacity:1"
             d="m 3087.8398,-1096.5098 -60.1894,0.1289 -1.0996,3.0801 -2.9727,59.4551 64.2617,0.062 64.2618,-0.062 -2.9746,-59.4551 -1.0977,-3.0801 z"
             id="path9" /><path
             style="font-variation-settings:normal;opacity:1;vector-effect:none;fill:#000000;fill-opacity:1;stroke:#000000;stroke-width:1.13942;stroke-linecap:round;stroke-linejoin:miter;stroke-miterlimit:4;stroke-dasharray:none;stroke-dashoffset:0;stroke-opacity:1;-inkscape-stroke:none;paint-order:stroke fill markers;stop-color:#000000;stop-opacity:1"
             d="m 3025.794,-1093.0317 -1.9734,58.9551 52.2446,0.2334 0.075,-59.3126 z m 124.0902,0 1.9734,58.9551 -52.2446,0.2334 -0.075,-59.3126 z"
             id="path10" /><path
             style="font-variation-settings:normal;opacity:1;vector-effect:none;fill:#000000;fill-opacity:1;stroke:#000000;stroke-width:1.13942;stroke-linecap:round;stroke-linejoin:miter;stroke-miterlimit:4;stroke-dasharray:none;stroke-dashoffset:0;stroke-opacity:1;-inkscape-stroke:none;paint-order:stroke fill markers;stop-color:#000000;stop-opacity:1"
             d="m 3025.7004,-1033.4516 0.2045,95.69891 -32.3127,-2.51063 -4.5503,-94.56748 2.403,-2.4715 z m 124.2774,0 -0.2045,95.69891 32.3127,-2.51063 4.5503,-94.56748 -2.403,-2.4715 z"
             id="path11" /></g></g><g
         id="g167"
         transform="matrix(0.77025635,0,0,1,458.74209,0)"
         style="stroke-width:1.13942"><g
           id="g248"
           transform="matrix(1.2982691,0,0,1,-595.57067,-3.375)"
           style="stroke-width:1.13942"><path
             style="font-variation-settings:normal;display:inline;vector-effect:none;fill:#6e5b4d;fill-opacity:1;stroke:#000000;stroke-width:0.826961;stroke-linecap:round;stroke-linejoin:miter;stroke-miterlimit:4;stroke-dasharray:none;stroke-dashoffset:0;stroke-opacity:1;-inkscape-stroke:none;paint-order:stroke fill markers"
             id="path242-7"
             width="1.557331"
             height="14.803677"
             x="-2803.9414"
             y="-943.93329"
             d="m -2803.9414,-943.93329 h 1.5573 v 14.80368 h -1.5573 z m -66.4566,0 h -1.5574 v 14.80368 h 1.5574 z"
             transform="scale(-1,1)" /><path
             style="font-variation-settings:normal;display:inline;vector-effect:none;fill:#6e5b4d;fill-opacity:1;stroke:#000000;stroke-width:0.826958;stroke-linecap:round;stroke-linejoin:miter;stroke-miterlimit:4;stroke-dasharray:none;stroke-dashoffset:0;stroke-opacity:1;-inkscape-stroke:none;paint-order:stroke fill markers"
             id="rect248"
             width="10.807331"
             height="9.6786766"
             x="-2808.5664"
             y="-943.68329"
             d="m -2808.5664,-943.68329 h 10.8073 v 9.67868 h -10.8073 z m -57.2066,0 h -10.8074 v 9.67868 h 10.8074 z"
             transform="scale(-1,1)" /></g><g
           id="g250"
           style="display:inline;stroke-width:1.13942"><path
             style="font-variation-settings:normal;opacity:1;vector-effect:none;fill:#e55529;fill-opacity:1;stroke:#000000;stroke-width:1.13942;stroke-linecap:round;stroke-linejoin:miter;stroke-miterlimit:4;stroke-dasharray:none;stroke-dashoffset:0;stroke-opacity:1;-inkscape-stroke:none;paint-order:stroke fill markers;stop-color:#000000;stop-opacity:1"
             d="m 3087.8391,-1236.6921 h -45.173 l -46.4855,3.375 -7.1229,85.8171 -0.01,119.7538 5.106,84.78837 93.6854,0.33423 93.6854,-0.33423 5.106,-84.78837 -0.01,-119.7538 -7.1229,-85.8171 -46.4855,-3.375 z"
             id="path165" /><path
             style="font-variation-settings:normal;opacity:1;vector-effect:none;fill:#e55529;fill-opacity:1;stroke:#000000;stroke-width:1.13942;stroke-linecap:round;stroke-linejoin:miter;stroke-miterlimit:4;stroke-dasharray:none;stroke-dashoffset:0;stroke-opacity:1;-inkscape-stroke:none;paint-order:stroke fill markers;stop-color:#000000;stop-opacity:1"
             d="m 3087.8398,-1236.7168 -44.7871,0.1895 v 78.5781 l 44.7871,0.3496 44.7852,-0.3496 v -78.5781 z"
             id="path169" /><path
             style="font-variation-settings:normal;opacity:1;vector-effect:none;fill:#e55529;fill-opacity:1;stroke:#000000;stroke-width:1.13942;stroke-linecap:round;stroke-linejoin:miter;stroke-miterlimit:4;stroke-dasharray:none;stroke-dashoffset:0;stroke-opacity:1;-inkscape-stroke:none;paint-order:stroke fill markers;stop-color:#000000;stop-opacity:1"
             d="m 3042.3169,-1147.2671 0.5497,-10.6795 44.9725,-0.1765 44.9725,0.1765 0.5497,10.6795"
             id="path170" /><path
             style="font-variation-settings:normal;opacity:1;vector-effect:none;fill:#e55529;fill-opacity:1;stroke:#000000;stroke-width:1.13942;stroke-linecap:round;stroke-linejoin:miter;stroke-miterlimit:4;stroke-dasharray:none;stroke-dashoffset:0;stroke-opacity:1;-inkscape-stroke:none;paint-order:stroke fill markers;stop-color:#000000;stop-opacity:1"
             d="m 3087.8398,-1096.5098 -60.1894,0.1289 -1.0996,3.0801 -2.9727,59.4551 64.2617,0.062 64.2618,-0.062 -2.9746,-59.4551 -1.0977,-3.0801 z"
             id="path205" /><path
             style="font-variation-settings:normal;opacity:1;vector-effect:none;fill:#e55529;fill-opacity:1;stroke:#000000;stroke-width:1.13942;stroke-linecap:round;stroke-linejoin:miter;stroke-miterlimit:4;stroke-dasharray:none;stroke-dashoffset:0;stroke-opacity:1;-inkscape-stroke:none;paint-order:stroke fill markers;stop-color:#000000;stop-opacity:1"
             d="m 3025.794,-1093.0317 -1.9734,58.9551 52.2446,0.2334 0.075,-59.3126 z m 124.0902,0 1.9734,58.9551 -52.2446,0.2334 -0.075,-59.3126 z"
             id="path172" /><path
             style="font-variation-settings:normal;opacity:1;vector-effect:none;fill:#e55529;fill-opacity:1;stroke:#000000;stroke-width:1.13942;stroke-linecap:round;stroke-linejoin:miter;stroke-miterlimit:4;stroke-dasharray:none;stroke-dashoffset:0;stroke-opacity:1;-inkscape-stroke:none;paint-order:stroke fill markers;stop-color:#000000;stop-opacity:1"
             d="m 3025.7004,-1033.4516 0.2045,95.69891 -32.3127,-2.51063 -4.5503,-94.56748 2.403,-2.4715 z m 124.2774,0 -0.2045,95.69891 32.3127,-2.51063 4.5503,-94.56748 -2.403,-2.4715 z"
             id="path173" /></g><g
           id="g249"><path
             style="font-variation-settings:normal;opacity:1;vector-effect:none;fill:#000000;fill-opacity:1;stroke:none;stroke-width:1.13942;stroke-linecap:round;stroke-linejoin:miter;stroke-miterlimit:4;stroke-dasharray:none;stroke-dashoffset:0;stroke-opacity:1;-inkscape-stroke:none;paint-order:stroke fill markers"
             d="m 3087.8398,-1147.998 -94.5703,0.5527 34.2657,50.8555 60.3046,0.2695 60.3028,-0.2695 34.2676,-50.8555 z"
             id="path175" /><path
             style="font-variation-settings:normal;opacity:1;vector-effect:none;fill:#000000;fill-opacity:1;stroke:none;stroke-width:1.13942;stroke-linecap:round;stroke-linejoin:miter;stroke-miterlimit:4;stroke-dasharray:none;stroke-dashoffset:0;stroke-opacity:1;-inkscape-stroke:none;paint-order:stroke fill markers"
             d="m 2991.9459,-1145.25 -0.7533,107.4129 35.3021,4.0507 -0.095,-59.0264 z m 191.7864,0 0.7533,107.4129 -35.3021,4.0507 0.095,-59.0264 z"
             id="path171" /></g><g
           id="g229"
           style="display:inline"
           transform="matrix(1,-0.12226378,0,1,0,362.95891)"><path
             style="font-variation-settings:normal;opacity:1;vector-effect:none;fill:#6e5b4d;fill-opacity:1;stroke:#000000;stroke-width:1.13942;stroke-linecap:round;stroke-linejoin:miter;stroke-miterlimit:4;stroke-dasharray:none;stroke-dashoffset:0;stroke-opacity:1;-inkscape-stroke:none;paint-order:stroke fill markers"
             d="m 2997.8759,-970.37499 1.136,25.25 22.0706,-0.125 0.1623,-26.125 z m 179.9264,21.99848 -1.136,24.97222 -22.0706,-5.52187 -0.1623,-26.16469 z"
             id="path190" /><g
             id="g228"
             style="display:inline;stroke-width:0.883002"
             transform="matrix(1,0,0,1.6651136,0,629.4228)"><g
               id="g211"
               transform="matrix(0.98504948,0,0,1,45.272251,17.48443)"
               style="stroke-width:0.889675"><path
                 style="font-variation-settings:normal;opacity:1;vector-effect:none;fill:#55463c;fill-opacity:1;stroke:none;stroke-width:0.889675;stroke-linecap:round;stroke-linejoin:miter;stroke-miterlimit:4;stroke-dasharray:none;stroke-dashoffset:0;stroke-opacity:1;-inkscape-stroke:none;paint-order:stroke fill markers"
                 d="m 3001.2018,-966.46094 -0.1015,1.32562 17.0061,-0.19622 -0.058,-1.88619 z m 175.0868,12.66384 0.1015,1.3403 -17.0061,-2.65628 0.058,-1.8778 z"
                 id="path210" /><path
                 style="font-variation-settings:normal;opacity:1;vector-effect:none;fill:#000000;fill-opacity:1;stroke:none;stroke-width:0.889675;stroke-linecap:round;stroke-linejoin:miter;stroke-miterlimit:4;stroke-dasharray:none;stroke-dashoffset:0;stroke-opacity:1;-inkscape-stroke:none;paint-order:stroke fill markers"
                 d="m 3001.0584,-965.19751 -0.057,0.88499 17.3322,-0.23247 -0.1068,-0.85625 z m 175.3736,12.68458 0.057,0.89324 -17.3322,-2.73971 0.1068,-0.8408 z"
                 id="path211" /></g><g
               id="g213"
               transform="matrix(0.98504948,0,0,1,45.109967,15.48443)"
               style="stroke-width:0.889675"><path
                 style="font-variation-settings:normal;opacity:1;vector-effect:none;fill:#55463c;fill-opacity:1;stroke:none;stroke-width:0.889675;stroke-linecap:round;stroke-linejoin:miter;stroke-miterlimit:4;stroke-dasharray:none;stroke-dashoffset:0;stroke-opacity:1;-inkscape-stroke:none;paint-order:stroke fill markers"
                 d="m 3001.2018,-966.46094 -0.1015,1.32562 17.0061,-0.19622 -0.058,-1.88619 z m 175.4163,12.68767 0.1015,1.3403 -17.0061,-2.65628 0.058,-1.8778 z"
                 id="path212" /><path
                 style="font-variation-settings:normal;opacity:1;vector-effect:none;fill:#000000;fill-opacity:1;stroke:none;stroke-width:0.889675;stroke-linecap:round;stroke-linejoin:miter;stroke-miterlimit:4;stroke-dasharray:none;stroke-dashoffset:0;stroke-opacity:1;-inkscape-stroke:none;paint-order:stroke fill markers"
                 d="m 3001.0584,-965.19751 -0.057,0.88499 17.3322,-0.23247 -0.1068,-0.85625 z m 175.7031,12.70841 0.057,0.89324 -17.3322,-2.73971 0.1068,-0.8408 z"
                 id="path213" /></g><g
               id="g215"
               transform="matrix(0.98504948,0,0,1,45.272251,13.34651)"
               style="stroke-width:0.889675"><path
                 style="font-variation-settings:normal;opacity:1;vector-effect:none;fill:#55463c;fill-opacity:1;stroke:none;stroke-width:0.889675;stroke-linecap:round;stroke-linejoin:miter;stroke-miterlimit:4;stroke-dasharray:none;stroke-dashoffset:0;stroke-opacity:1;-inkscape-stroke:none;paint-order:stroke fill markers"
                 d="m 3001.2018,-966.46094 -0.1015,1.32562 17.0061,-0.19622 -0.058,-1.88619 z m 175.0868,12.66384 0.1015,1.3403 -17.0061,-2.65628 0.058,-1.8778 z"
                 id="path214" /><path
                 style="font-variation-settings:normal;opacity:1;vector-effect:none;fill:#000000;fill-opacity:1;stroke:none;stroke-width:0.889675;stroke-linecap:round;stroke-linejoin:miter;stroke-miterlimit:4;stroke-dasharray:none;stroke-dashoffset:0;stroke-opacity:1;-inkscape-stroke:none;paint-order:stroke fill markers"
                 d="m 3001.0584,-965.19751 -0.057,0.88499 17.3322,-0.23247 -0.1068,-0.85625 z m 175.3736,12.68458 0.057,0.89324 -17.3322,-2.73971 0.1068,-0.8408 z"
                 id="path215" /></g><g
               id="g217"
               transform="matrix(0.98504948,0,0,1,45.272251,11.1838)"
               style="stroke-width:0.889675"><path
                 style="font-variation-settings:normal;opacity:1;vector-effect:none;fill:#55463c;fill-opacity:1;stroke:none;stroke-width:0.889675;stroke-linecap:round;stroke-linejoin:miter;stroke-miterlimit:4;stroke-dasharray:none;stroke-dashoffset:0;stroke-opacity:1;-inkscape-stroke:none;paint-order:stroke fill markers"
                 d="m 3001.2018,-966.46094 -0.1015,1.32562 17.0061,-0.19622 -0.058,-1.88619 z m 175.0868,12.66384 0.1015,1.3403 -17.0061,-2.65628 0.058,-1.8778 z"
                 id="path216" /><path
                 style="font-variation-settings:normal;opacity:1;vector-effect:none;fill:#000000;fill-opacity:1;stroke:none;stroke-width:0.889675;stroke-linecap:round;stroke-linejoin:miter;stroke-miterlimit:4;stroke-dasharray:none;stroke-dashoffset:0;stroke-opacity:1;-inkscape-stroke:none;paint-order:stroke fill markers"
                 d="m 3001.0584,-965.19751 -0.057,0.88499 17.3322,-0.23247 -0.1068,-0.85625 z m 175.3736,12.68458 0.057,0.89324 -17.3322,-2.73971 0.1068,-0.8408 z"
                 id="path217" /></g><g
               id="g219"
               transform="matrix(0.98504948,0,0,1,45.272251,9.09651)"
               style="stroke-width:0.889675"><path
                 style="font-variation-settings:normal;opacity:1;vector-effect:none;fill:#55463c;fill-opacity:1;stroke:none;stroke-width:0.889675;stroke-linecap:round;stroke-linejoin:miter;stroke-miterlimit:4;stroke-dasharray:none;stroke-dashoffset:0;stroke-opacity:1;-inkscape-stroke:none;paint-order:stroke fill markers"
                 d="m 3001.2018,-966.46094 -0.1015,1.32562 17.0061,-0.19622 -0.058,-1.88619 z m 175.0868,12.66384 0.1015,1.3403 -17.0061,-2.65628 0.058,-1.8778 z"
                 id="path218" /><path
                 style="font-variation-settings:normal;opacity:1;vector-effect:none;fill:#000000;fill-opacity:1;stroke:none;stroke-width:0.889675;stroke-linecap:round;stroke-linejoin:miter;stroke-miterlimit:4;stroke-dasharray:none;stroke-dashoffset:0;stroke-opacity:1;-inkscape-stroke:none;paint-order:stroke fill markers"
                 d="m 3001.0584,-965.19751 -0.057,0.88499 17.3322,-0.23247 -0.1068,-0.85625 z m 175.3736,12.68458 0.057,0.89324 -17.3322,-2.73971 0.1068,-0.8408 z"
                 id="path219" /></g><g
               id="g221"
               transform="matrix(0.98504948,0,0,1,45.272251,7.1591849)"
               style="stroke-width:0.889675"><path
                 style="font-variation-settings:normal;opacity:1;vector-effect:none;fill:#55463c;fill-opacity:1;stroke:none;stroke-width:0.889675;stroke-linecap:round;stroke-linejoin:miter;stroke-miterlimit:4;stroke-dasharray:none;stroke-dashoffset:0;stroke-opacity:1;-inkscape-stroke:none;paint-order:stroke fill markers"
                 d="m 3001.2018,-966.46094 -0.1015,1.32562 17.0061,-0.19622 -0.058,-1.88619 z m 175.0868,12.66384 0.1015,1.3403 -17.0061,-2.65628 0.058,-1.8778 z"
                 id="path220" /><path
                 style="font-variation-settings:normal;opacity:1;vector-effect:none;fill:#000000;fill-opacity:1;stroke:none;stroke-width:0.889675;stroke-linecap:round;stroke-linejoin:miter;stroke-miterlimit:4;stroke-dasharray:none;stroke-dashoffset:0;stroke-opacity:1;-inkscape-stroke:none;paint-order:stroke fill markers"
                 d="m 3001.0584,-965.19751 -0.057,0.88499 17.3322,-0.23247 -0.1068,-0.85625 z m 175.3736,12.68458 0.057,0.89324 -17.3322,-2.73971 0.1068,-0.8408 z"
                 id="path221" /></g></g><path
             style="font-variation-settings:normal;opacity:1;vector-effect:none;fill:none;fill-opacity:1;stroke:#000000;stroke-width:1.13942;stroke-linecap:round;stroke-linejoin:miter;stroke-miterlimit:4;stroke-dasharray:none;stroke-dashoffset:0;stroke-opacity:1;-inkscape-stroke:none;paint-order:stroke fill markers"
             d="m 3001.1085,-968.07921 0.8214,20.38038 15.959,-0.091 0.1174,-21.01732 z m 173.4612,21.20802 -0.8214,20.17953 -15.959,-3.99342 -0.1174,-21.04603 z"
             id="path207" /></g><path
           style="font-variation-settings:normal;opacity:1;vector-effect:none;fill:#ffffff;fill-opacity:1;stroke:#000000;stroke-width:1.13942;stroke-linecap:round;stroke-linejoin:miter;stroke-miterlimit:4;stroke-dasharray:none;stroke-dashoffset:0;stroke-opacity:1;-inkscape-stroke:none;paint-order:stroke fill markers"
           d="m 2999.1296,-1230.7917 39.0645,-3.2841 0.062,12.0052 -40.4646,3.4749 z m 177.419,0 -39.0645,-3.2841 -0.062,12.0052 40.4646,3.4749 z"
           id="path176" /><path
           style="font-variation-settings:normal;display:inline;opacity:1;vector-effect:none;fill:#ffffff;fill-opacity:1;stroke:#000000;stroke-width:1.13942;stroke-linecap:round;stroke-linejoin:miter;stroke-miterlimit:4;stroke-dasharray:none;stroke-dashoffset:0;stroke-opacity:1;-inkscape-stroke:none;paint-order:stroke fill markers;stop-color:#000000;stop-opacity:1"
           d="m 2995.4794,-944.99599 27.9037,-1.55557 -0.2059,6.15057 -27.4508,-1.86149 z m 184.7194,0 -27.9037,-1.55557 0.2059,6.15057 27.4508,-1.86149 z"
           id="path235" /><path
           style="font-variation-settings:normal;opacity:1;vector-effect:none;fill:#000000;fill-opacity:1;stroke:none;stroke-width:1;stroke-linecap:round;stroke-linejoin:miter;stroke-miterlimit:4;stroke-dasharray:none;stroke-dashoffset:0;stroke-opacity:1;-inkscape-stroke:none;paint-order:stroke fill markers"
           id="path206"
           d="m 3087.832,-1229.125 c -0.5657,0 -1.0254,0.3533 -1.0254,0.7891 0,0.4357 0.4597,0.789 1.0254,0.789 0,0 0.01,0 0.01,0 0,0 0,0 0.01,0 0.5658,0 1.0254,-0.3533 1.0254,-0.789 0,-0.4358 -0.4596,-0.7891 -1.0254,-0.7891 -0,0 -0,0 -0.01,0 -0,0 -0.01,0 -0.01,0 z" /><g
           id="g246"
           style="display:inline"><path
             style="font-variation-settings:normal;opacity:1;vector-effect:none;fill:#be3e17;fill-opacity:1;stroke:#000000;stroke-width:1.13942;stroke-linecap:round;stroke-linejoin:miter;stroke-miterlimit:4;stroke-dasharray:none;stroke-dashoffset:0;stroke-opacity:1;-inkscape-stroke:none;paint-order:stroke fill markers;stop-color:#000000;stop-opacity:1"
             d="m 3087.8391,-1018.6023 -37.52,0.04 1.4302,58.18536 h 36.0898 36.0898 l 1.4302,-58.18536 z"
             id="path246" /><path
             style="font-variation-settings:normal;opacity:1;vector-effect:none;fill:#000000;fill-opacity:1;stroke:#000000;stroke-width:1.13942;stroke-linecap:round;stroke-linejoin:miter;stroke-miterlimit:4;stroke-dasharray:none;stroke-dashoffset:0;stroke-opacity:1;-inkscape-stroke:none;paint-order:stroke fill markers;stop-color:#000000;stop-opacity:1"
             d="m 3087.8391,-1016.3583 -35.2366,0.041 1.2376,56.06711 h 33.999 33.999 l 1.2376,-56.06711 z"
             id="path174" /><path
             style="font-variation-settings:normal;opacity:1;vector-effect:none;fill:#6e5b4d;fill-opacity:1;stroke:#000000;stroke-width:1.07629;stroke-linecap:round;stroke-linejoin:miter;stroke-miterlimit:4;stroke-dasharray:none;stroke-dashoffset:0;stroke-opacity:1;-inkscape-stroke:none;paint-order:stroke fill markers"
             id="rect237"
             width="10.468499"
             height="44.865219"
             x="3056.8071"
             y="-1014.075"
             d="m 3056.8071,-1014.075 h 10.4685 v 44.86521 h -10.4685 z m 62.064,0 h -10.4685 v 44.86521 h 10.4685 z" /><path
             style="font-variation-settings:normal;opacity:1;vector-effect:none;fill:#6e5b4d;fill-opacity:1;stroke:#000000;stroke-width:0.942253;stroke-linecap:round;stroke-linejoin:miter;stroke-miterlimit:4;stroke-dasharray:none;stroke-dashoffset:0;stroke-opacity:1;-inkscape-stroke:none;paint-order:stroke fill markers"
             id="path237"
             width="3.969213"
             height="58.53788"
             x="-3072.2881"
             y="-1014.1677"
             d="m -3072.2881,-1014.1677 h 3.9692 v 58.53786 h -3.9692 z m -31.102,0 h -3.9692 v 58.53786 h 3.9692 z"
             transform="scale(-1,1)" /><path
             style="font-variation-settings:normal;opacity:1;vector-effect:none;fill:#6e5b4d;fill-opacity:1;stroke:#000000;stroke-width:0.942253;stroke-linecap:round;stroke-linejoin:miter;stroke-miterlimit:4;stroke-dasharray:none;stroke-dashoffset:0;stroke-opacity:1;-inkscape-stroke:none;paint-order:stroke fill markers"
             id="path242"
             width="2.0218346"
             height="58.678677"
             x="-3075.0469"
             y="-1014.3084"
             d="m -3075.0469,-1014.3084 h 2.0219 v 58.67867 h -2.0219 z m -25.5844,0 h -2.0219 v 58.67867 h 2.0219 z"
             transform="scale(-1,1)" /><path
             style="font-variation-settings:normal;opacity:1;vector-effect:none;fill:#6e5b4d;fill-opacity:1;stroke:#000000;stroke-width:1.64659;stroke-linecap:round;stroke-linejoin:miter;stroke-miterlimit:4;stroke-dasharray:none;stroke-dashoffset:0;stroke-opacity:1;-inkscape-stroke:none;paint-order:stroke fill markers"
             id="path238"
             width="3.969213"
             height="19.169109"
             x="-3074.8127"
             y="-1010.694"
             d="m -3074.8127,-1010.694 h 3.9692 v 19.16914 h -3.9692 z m -26.0528,0 h -3.9692 v 19.16914 h 3.9692 z"
             transform="scale(-1,1)" /><path
             style="font-variation-settings:normal;opacity:1;vector-effect:none;fill:#6e5b4d;fill-opacity:1;stroke:#000000;stroke-width:1;stroke-linecap:round;stroke-linejoin:miter;stroke-miterlimit:4;stroke-dasharray:none;stroke-dashoffset:0;stroke-opacity:1;-inkscape-stroke:none;paint-order:stroke fill markers"
             id="path243"
             width="12.543256"
             height="46.859684"
             x="3075.7173"
             y="-1014.3221"
             d="m 3075.7168,-1014.3223 v 46.85941 h 12.123 12.1211 v -46.85941 h -12.1211 z" /><path
             style="font-variation-settings:normal;opacity:1;vector-effect:none;fill:#6e5b4d;fill-opacity:1;stroke:#000000;stroke-width:1.88313;stroke-linecap:round;stroke-linejoin:miter;stroke-miterlimit:4;stroke-dasharray:none;stroke-dashoffset:0;stroke-opacity:1;-inkscape-stroke:none;paint-order:stroke fill markers"
             id="path241"
             width="3.6604378"
             height="21.0588"
             x="-3084.9424"
             y="-994.09448"
             d="m -3084.9424,-994.09448 h 3.6605 v 21.0588 h -3.6605 z m -5.7934,0 h -3.6605 v 21.0588 h 3.6605 z"
             transform="scale(-1,1)" /><path
             style="font-variation-settings:normal;opacity:1;vector-effect:none;fill:#6e5b4d;fill-opacity:1;stroke:#000000;stroke-width:1.64659;stroke-linecap:round;stroke-linejoin:miter;stroke-miterlimit:4;stroke-dasharray:none;stroke-dashoffset:0;stroke-opacity:1;-inkscape-stroke:none;paint-order:stroke fill markers"
             id="path239"
             width="11.542861"
             height="19.169128"
             x="-3087.8945"
             y="-1010.694"
             d="m -3076.3516,-1010.6934 v 19.16801 h -11.4882 -11.4864 v -19.16801 h 11.4864 z"
             transform="scale(-1,1)" /><path
             style="font-variation-settings:normal;opacity:1;vector-effect:none;fill:#6e5b4d;fill-opacity:1;stroke:#000000;stroke-width:1.57472;stroke-linecap:round;stroke-linejoin:miter;stroke-miterlimit:4;stroke-dasharray:none;stroke-dashoffset:0;stroke-opacity:1;-inkscape-stroke:none;paint-order:stroke fill markers"
             id="path240"
             width="1.4739536"
             height="30.522221"
             x="-3087.3076"
             y="-1014.2011"
             d="m -3087.3076,-1014.2011 h 1.4739 v 30.52221 h -1.4739 z m -1.063,0 h -1.4739 v 30.52221 h 1.4739 z"
             transform="scale(-1,1)" /><path
             style="font-variation-settings:normal;opacity:1;fill:#6e5b4d;fill-opacity:1;stroke:#000000;stroke-width:1.13942;stroke-linecap:round;stroke-linejoin:miter;stroke-miterlimit:4;stroke-dasharray:none;stroke-dashoffset:0;stroke-opacity:1;paint-order:stroke fill markers"
             id="path244"
             width="17.456017"
             height="2.0522461"
             x="3063.3267"
             y="-969.02008"
             d="m 3063.3267,-969.02008 h 17.456 v 2.05225 h -17.456 z m 49.0248,0 h -17.456 v 2.05225 h 17.456 z"
             ry="0" /><path
             style="font-variation-settings:normal;opacity:1;fill:#6e5b4d;fill-opacity:1;stroke:#000000;stroke-width:1.13942;stroke-linecap:round;stroke-linejoin:miter;stroke-miterlimit:4;stroke-dasharray:none;stroke-dashoffset:0;stroke-opacity:1;paint-order:stroke fill markers"
             id="path245"
             width="8.0436039"
             height="2.3022461"
             x="3067.7083"
             y="-966.39508"
             d="m 3067.7083,-966.39508 h 8.0436 v 2.30225 h -8.0436 z m 40.2616,0 h -8.0436 v 2.30225 h 8.0436 z"
             ry="0" /><path
             style="font-variation-settings:normal;opacity:1;vector-effect:none;fill:#6e5b4d;fill-opacity:1;stroke:#000000;stroke-width:1.64659;stroke-linecap:round;stroke-linejoin:miter;stroke-miterlimit:4;stroke-dasharray:none;stroke-dashoffset:0;stroke-opacity:1;-inkscape-stroke:none;paint-order:stroke fill markers"
             id="path247"
             width="12.004078"
             height="19.169128"
             x="-3087.8643"
             y="-1010.694"
             d="m -3075.8594,-1010.6934 v 19.16801 h -11.9804 -11.9786 v -19.16801 h 11.9786 z"
             transform="scale(-1,1)" /><path
             style="font-variation-settings:normal;opacity:1;vector-effect:none;fill:#55463c;fill-opacity:1;stroke:#000000;stroke-width:0.981382;stroke-linecap:round;stroke-linejoin:miter;stroke-miterlimit:4;stroke-dasharray:none;stroke-dashoffset:0;stroke-opacity:1;-inkscape-stroke:none;paint-order:stroke fill markers;stop-color:#000000;stop-opacity:1"
             d="m 3075.123,-1011.25 4.6583,22.375 h 8.0585 8.0567 l 4.6582,-22.375 h -12.7149 z"
             id="path248" /></g><g
           id="g231"
           transform="translate(2.373713e-8,-7.1767767)"
           style="display:inline"><path
             style="font-variation-settings:normal;opacity:1;vector-effect:none;fill:#8b7e67;fill-opacity:1;stroke:#000000;stroke-width:1.13942;stroke-linecap:round;stroke-linejoin:miter;stroke-miterlimit:4;stroke-dasharray:none;stroke-dashoffset:0;stroke-opacity:1;-inkscape-stroke:none;paint-order:stroke fill markers"
             d="m 2998.1808,-982.82734 0.459,6.81586 22.31,-0.26386 0.4638,-5.34502 z m 179.3166,0 -0.459,6.81586 -22.31,-0.26386 -0.4638,-5.34502 z"
             id="path192" /><path
             style="font-variation-settings:normal;opacity:1;vector-effect:none;fill:#6e5b4d;fill-opacity:1;stroke:#000000;stroke-width:1.13942;stroke-linecap:round;stroke-linejoin:miter;stroke-miterlimit:4;stroke-dasharray:none;stroke-dashoffset:0;stroke-opacity:1;-inkscape-stroke:none;paint-order:stroke fill markers"
             d="m 2993.7771,-1021.8967 1.9067,40.45503 20.5458,-0.2794 5.0989,-0.6006 0.063,-36.79093 -5.9479,-3.3983 z m 188.124,0 -1.9067,40.45503 -20.5458,-0.2794 -5.0989,-0.6006 -0.063,-36.79093 5.9479,-3.3983 z"
             id="path191" /><g
             id="g230"><path
               style="font-variation-settings:normal;opacity:1;vector-effect:none;fill:#6d5b51;fill-opacity:1;stroke:#000000;stroke-width:1.13942;stroke-linecap:round;stroke-linejoin:miter;stroke-miterlimit:4;stroke-dasharray:none;stroke-dashoffset:0;stroke-opacity:1;-inkscape-stroke:none;paint-order:stroke fill markers"
               d="m 3000.4511,-991.0227 4.59,4.77297 3.787,-5.08233 z m 174.776,0 -4.59,4.77297 -3.787,-5.08233 z"
               id="path194" /><path
               style="font-variation-settings:normal;opacity:1;vector-effect:none;fill:#6d5b51;fill-opacity:1;stroke:#000000;stroke-width:1.13942;stroke-linecap:round;stroke-linejoin:miter;stroke-miterlimit:4;stroke-dasharray:none;stroke-dashoffset:0;stroke-opacity:1;-inkscape-stroke:none;paint-order:stroke fill markers"
               d="m 2999.9921,-998.35894 4.59,4.77297 3.787,-5.08233 z m 175.694,0 -4.59,4.77297 -3.787,-5.08233 z"
               id="path195" /><path
               style="font-variation-settings:normal;opacity:1;vector-effect:none;fill:#6d5b51;fill-opacity:1;stroke:#000000;stroke-width:1.13942;stroke-linecap:round;stroke-linejoin:miter;stroke-miterlimit:4;stroke-dasharray:none;stroke-dashoffset:0;stroke-opacity:1;-inkscape-stroke:none;paint-order:stroke fill markers"
               d="m 2999.5331,-1005.8719 4.59,4.7729 3.787,-5.0823 z m 176.612,0 -4.59,4.7729 -3.787,-5.0823 z"
               id="path196" /></g><path
             style="font-variation-settings:normal;opacity:1;vector-effect:none;fill:#000000;fill-opacity:1;stroke:none;stroke-width:1.13942;stroke-linecap:round;stroke-linejoin:miter;stroke-miterlimit:4;stroke-dasharray:none;stroke-dashoffset:0;stroke-opacity:1;-inkscape-stroke:none;paint-order:stroke fill markers"
             d="m 3021.8103,-1011.5403 -6.0839,-0.2197 0.1884,19.74991 5.7709,0.0978 z m 132.0576,0 6.0839,-0.2197 -0.1884,19.74991 -5.7709,0.0978 z"
             id="path197" /><g
             id="g203"
             transform="matrix(1.009782,0,0,1,-30.205355,0)"
             style="stroke-width:1.13389"><use
               xlink:href="#g200"
               id="use200"
               style="stroke-width:1.13389" /><use
               xlink:href="#g200"
               id="use201"
               transform="translate(0,3.0052038)"
               style="stroke-width:1.13389" /><use
               xlink:href="#g200"
               id="use202"
               transform="translate(0,6.2755727)"
               style="stroke-width:1.13389" /><use
               xlink:href="#g200"
               id="use203"
               transform="translate(0,9.7227183)"
               style="stroke-width:1.13389" /><g
               id="g200"><path
                 style="font-variation-settings:normal;opacity:1;fill:none;fill-opacity:1;stroke:#000000;stroke-width:3.41825;stroke-linecap:round;stroke-linejoin:miter;stroke-miterlimit:4;stroke-dasharray:none;stroke-dashoffset:0;stroke-opacity:1;paint-order:stroke fill markers"
                 d="m 3018.3443,-1007.1665 c 0,0 10.0594,-1.9931 17.6104,4.5731 7.551,6.56625 13.3881,11.19719 21.5878,10.92574 m 99.7916,-15.49884 c 0,0 -10.0594,-1.9931 -17.6104,4.5731 -7.551,6.56625 -13.3881,11.19719 -21.5878,10.92574"
                 id="path198" /><path
                 style="font-variation-settings:normal;opacity:1;fill:none;fill-opacity:1;stroke:#8a7f67;stroke-width:2.27883;stroke-linecap:round;stroke-linejoin:miter;stroke-miterlimit:4;stroke-dasharray:none;stroke-dashoffset:0;stroke-opacity:1;paint-order:stroke fill markers"
                 d="m 3018.6852,-1007.3433 c 0,0 8.5253,-1.9931 16.3604,3.9986 7.8351,5.99172 12.9335,11.80333 22.2696,11.72123 m 99.678,-15.71983 c 0,0 -8.5253,-1.9931 -16.3604,3.9986 -7.8351,5.99172 -12.9335,11.80333 -22.2696,11.72123"
                 id="path200" /></g></g><path
             style="font-variation-settings:normal;opacity:1;fill:#b29667;fill-opacity:1;stroke:#000000;stroke-width:0.68365;stroke-linecap:round;stroke-linejoin:miter;stroke-miterlimit:4;stroke-dasharray:none;stroke-dashoffset:0;stroke-opacity:1;paint-order:stroke fill markers"
             d="m 3015.3835,-1022.7203 0.8032,40.96797 m 144.108,-40.96797 -0.8032,40.96797"
             id="path232" /><path
             style="font-variation-settings:normal;opacity:1;fill:#b29667;fill-opacity:1;stroke:#000000;stroke-width:0.68365;stroke-linecap:round;stroke-linejoin:miter;stroke-miterlimit:4;stroke-dasharray:none;stroke-dashoffset:0;stroke-opacity:1;paint-order:stroke fill markers"
             d="m 3018.2522,-981.44297 0.2296,5.48007 m 138.9442,-5.48007 -0.2296,5.48007"
             id="path233" /><path
             style="font-variation-settings:normal;display:inline;opacity:1;fill:#000000;fill-opacity:1;stroke:#000000;stroke-width:0.68365;stroke-linecap:round;stroke-linejoin:miter;stroke-miterlimit:4;stroke-dasharray:none;stroke-dashoffset:0;stroke-opacity:1;paint-order:stroke fill markers"
             d="m 2998.5149,-975.46571 c 8.1179,0.76139 15.6973,0.54453 22.6406,-0.26472 m 156.0078,0.26472 c -8.1179,0.76139 -15.6973,0.54453 -22.6406,-0.26472"
             id="path234" /></g></g></g></g></svg>
